<svg xmlns="http://www.w3.org/2000/svg" xmlns:xlink="http://www.w3.org/1999/xlink" width="500" zoomAndPan="magnify" viewBox="0 0 375 374.999991" height="500" preserveAspectRatio="xMidYMid meet" version="1.0"><defs><g/><clipPath id="357fb0cb71"><path d="M 94.128906 14 L 280.816406 14 L 280.816406 290.632812 L 94.128906 290.632812 Z M 94.128906 14 " clip-rule="nonzero"/></clipPath></defs><path fill="#ffb100" d="M 207.449219 218.824219 C 207.449219 221.449219 205.3125 223.578125 202.695312 223.578125 L 172.335938 223.578125 C 169.722656 223.578125 167.585938 221.449219 167.585938 218.824219 L 167.585938 188.453125 C 167.585938 185.835938 169.722656 183.710938 172.335938 183.710938 L 202.699219 183.710938 C 205.3125 183.710938 207.453125 185.835938 207.453125 188.453125 L 207.453125 218.824219 Z M 207.449219 218.824219 " fill-opacity="1" fill-rule="nonzero"/><path fill="#42b883" d="M 154.984375 218.824219 C 154.984375 221.449219 152.871094 223.578125 150.234375 223.578125 L 119.863281 223.578125 C 117.25 223.578125 115.128906 221.441406 115.128906 218.824219 L 115.128906 188.453125 C 115.128906 185.835938 117.25 183.710938 119.863281 183.710938 L 150.234375 183.710938 C 152.863281 183.710938 154.984375 185.835938 154.984375 188.453125 Z M 154.984375 218.824219 " fill-opacity="1" fill-rule="nonzero"/><path fill="#155f3e" d="M 259.910156 218.824219 C 259.910156 221.449219 257.785156 223.578125 255.148438 223.578125 L 224.785156 223.578125 C 222.160156 223.578125 220.046875 221.449219 220.046875 218.824219 L 220.046875 188.453125 C 220.046875 185.835938 222.167969 183.710938 224.785156 183.710938 L 255.148438 183.710938 C 257.78125 183.710938 259.910156 185.835938 259.910156 188.453125 Z M 259.910156 218.824219 " fill-opacity="1" fill-rule="nonzero"/><path fill="#e3e3e3" d="M 207.449219 113.84375 C 207.449219 116.46875 205.3125 118.597656 202.695312 118.597656 L 172.335938 118.597656 C 169.722656 118.597656 167.585938 116.476562 167.585938 113.84375 L 167.585938 83.472656 C 167.585938 80.847656 169.722656 78.730469 172.335938 78.730469 L 202.699219 78.730469 C 205.3125 78.730469 207.453125 80.847656 207.453125 83.472656 L 207.453125 113.84375 Z M 207.449219 113.84375 " fill-opacity="1" fill-rule="nonzero"/><path fill="#42b883" d="M 154.984375 113.84375 C 154.984375 116.46875 152.871094 118.597656 150.234375 118.597656 L 119.863281 118.597656 C 117.25 118.597656 115.128906 116.476562 115.128906 113.84375 L 115.128906 83.472656 C 115.128906 80.855469 117.25 78.730469 119.863281 78.730469 L 150.234375 78.730469 C 152.863281 78.730469 154.984375 80.847656 154.984375 83.472656 Z M 154.984375 113.84375 " fill-opacity="1" fill-rule="nonzero"/><path fill="#ffb100" d="M 259.910156 113.84375 C 259.910156 116.46875 257.785156 118.597656 255.148438 118.597656 L 224.785156 118.597656 C 222.160156 118.597656 220.046875 116.476562 220.046875 113.84375 L 220.046875 83.472656 C 220.046875 80.855469 222.167969 78.730469 224.785156 78.730469 L 255.148438 78.730469 C 257.78125 78.730469 259.910156 80.855469 259.910156 83.472656 Z M 259.910156 113.84375 " fill-opacity="1" fill-rule="nonzero"/><path fill="#155f3e" d="M 154.984375 166.339844 C 154.984375 168.957031 152.871094 171.089844 150.234375 171.089844 L 119.863281 171.089844 C 117.25 171.089844 115.128906 168.957031 115.128906 166.339844 L 115.128906 135.96875 C 115.128906 133.351562 117.25 131.226562 119.863281 131.226562 L 150.234375 131.226562 C 152.863281 131.226562 154.984375 133.351562 154.984375 135.96875 Z M 154.984375 166.339844 " fill-opacity="1" fill-rule="nonzero"/><path fill="#e3e3e3" d="M 259.910156 166.339844 C 259.910156 168.957031 257.785156 171.089844 255.148438 171.089844 L 224.785156 171.089844 C 222.160156 171.089844 220.046875 168.957031 220.046875 166.339844 L 220.046875 135.96875 C 220.046875 133.34375 222.167969 131.226562 224.785156 131.226562 L 255.148438 131.226562 C 257.78125 131.226562 259.910156 133.34375 259.910156 135.96875 Z M 259.910156 166.339844 " fill-opacity="1" fill-rule="nonzero"/><g clip-path="url(#357fb0cb71)"><path fill="#000000" d="M 207.449219 166.339844 C 207.449219 168.957031 205.3125 171.089844 202.695312 171.089844 L 172.335938 171.089844 C 169.722656 171.089844 167.585938 168.957031 167.585938 166.339844 L 167.585938 135.96875 C 167.585938 133.34375 169.722656 131.226562 172.335938 131.226562 L 202.699219 131.226562 C 205.3125 131.226562 207.453125 133.34375 207.453125 135.96875 L 207.453125 166.339844 Z M 280.945312 67.972656 L 280.945312 233.570312 C 280.945312 239.441406 276.175781 244.210938 270.308594 244.210938 L 267.246094 244.210938 L 267.246094 263.875 C 267.246094 278.535156 255.324219 290.453125 240.664062 290.453125 L 134.371094 290.453125 C 119.710938 290.453125 107.800781 278.535156 107.800781 263.875 L 107.800781 244.210938 L 104.714844 244.210938 C 98.84375 244.210938 94.066406 239.441406 94.066406 233.570312 L 94.066406 67.972656 C 94.066406 62.105469 98.84375 57.332031 104.710938 57.332031 L 107.796875 57.332031 L 107.796875 40.71875 C 107.796875 26.074219 119.710938 14.148438 134.371094 14.148438 L 240.675781 14.148438 C 255.328125 14.148438 267.246094 26.074219 267.246094 40.71875 L 267.246094 57.332031 L 270.308594 57.332031 C 276.167969 57.332031 280.945312 62.105469 280.945312 67.972656 Z M 115.390625 57.332031 L 259.660156 57.332031 L 259.660156 40.71875 C 259.660156 30.257812 251.132812 21.738281 240.671875 21.738281 L 134.371094 21.738281 C 123.898438 21.738281 115.394531 30.257812 115.394531 40.71875 L 115.394531 57.332031 Z M 259.648438 244.210938 L 115.382812 244.210938 L 115.382812 263.875 C 115.382812 274.34375 123.898438 282.871094 134.371094 282.871094 L 240.664062 282.871094 C 251.132812 282.871094 259.652344 274.34375 259.652344 263.875 L 259.652344 244.210938 Z M 272.96875 67.972656 C 272.96875 66.523438 271.769531 65.300781 270.304688 65.300781 L 104.710938 65.300781 C 103.269531 65.300781 102.046875 66.523438 102.046875 67.972656 L 102.046875 233.570312 C 102.046875 235.019531 103.269531 236.242188 104.710938 236.242188 L 270.304688 236.242188 C 271.761719 236.242188 272.96875 235.019531 272.96875 233.570312 Z M 119.941406 263.113281 L 119.941406 249.503906 L 255.085938 249.503906 L 255.085938 263.113281 C 255.085938 271.074219 248.613281 277.550781 240.660156 277.550781 L 134.359375 277.550781 C 126.40625 277.550781 119.941406 271.074219 119.941406 263.113281 Z M 180.964844 270.027344 C 180.964844 271.003906 181.757812 271.796875 182.742188 271.796875 L 192.277344 271.796875 C 193.261719 271.796875 194.066406 271.003906 194.066406 270.027344 L 194.066406 260.472656 C 194.066406 259.492188 193.269531 258.695312 192.277344 258.695312 L 182.742188 258.695312 C 181.757812 258.695312 180.964844 259.492188 180.964844 260.472656 Z M 255.101562 41.460938 L 255.101562 52.042969 L 119.945312 52.042969 L 119.945312 41.460938 C 119.945312 33.511719 126.410156 27.035156 134.371094 27.035156 L 240.675781 27.035156 C 248.621094 27.027344 255.101562 33.511719 255.101562 41.460938 Z M 205.652344 37.804688 C 205.652344 36.648438 204.707031 35.703125 203.539062 35.703125 L 171.503906 35.703125 C 170.347656 35.703125 169.398438 36.648438 169.398438 37.804688 C 169.398438 38.96875 170.347656 39.910156 171.503906 39.910156 L 203.539062 39.910156 C 204.703125 39.910156 205.652344 38.96875 205.652344 37.804688 Z M 239.238281 37.808594 C 239.238281 36.132812 237.878906 34.773438 236.195312 34.773438 C 234.527344 34.773438 233.171875 36.132812 233.171875 37.808594 C 233.171875 39.492188 234.53125 40.847656 236.195312 40.847656 C 237.878906 40.847656 239.238281 39.492188 239.238281 37.808594 Z M 239.238281 37.808594 " fill-opacity="1" fill-rule="nonzero"/></g><g fill="#000000" fill-opacity="1"><g transform="translate(40.79772, 353.062477)"><g><path d="M 3.953125 0 L 3.953125 -40.28125 L 17.25 -40.28125 C 20.03125 -40.28125 22.640625 -39.753906 25.078125 -38.703125 C 27.515625 -37.648438 29.648438 -36.207031 31.484375 -34.375 C 33.316406 -32.539062 34.757812 -30.398438 35.8125 -27.953125 C 36.863281 -25.515625 37.390625 -22.910156 37.390625 -20.140625 C 37.390625 -17.367188 36.863281 -14.757812 35.8125 -12.3125 C 34.757812 -9.875 33.316406 -7.738281 31.484375 -5.90625 C 29.648438 -4.070312 27.515625 -2.628906 25.078125 -1.578125 C 22.640625 -0.523438 20.03125 0 17.25 0 Z M 12.828125 -7.859375 L 17.1875 -7.859375 C 19.332031 -7.859375 21.253906 -8.394531 22.953125 -9.46875 C 24.660156 -10.539062 26.015625 -12.003906 27.015625 -13.859375 C 28.023438 -15.710938 28.53125 -17.804688 28.53125 -20.140625 C 28.53125 -22.460938 28.023438 -24.550781 27.015625 -26.40625 C 26.015625 -28.269531 24.660156 -29.738281 22.953125 -30.8125 C 21.253906 -31.882812 19.332031 -32.421875 17.1875 -32.421875 L 12.828125 -32.421875 Z M 12.828125 -7.859375 "/></g></g></g><g fill="#000000" fill-opacity="1"><g transform="translate(79.592405, 353.062477)"><g><path d="M 15.984375 0.53125 C 11.910156 0.53125 8.785156 -0.453125 6.609375 -2.421875 C 4.441406 -4.390625 3.359375 -7.003906 3.359375 -10.265625 L 3.359375 -26.84375 L 11.953125 -26.84375 L 11.953125 -11.40625 C 11.953125 -10.15625 12.34375 -9.113281 13.125 -8.28125 C 13.90625 -7.457031 14.859375 -7.046875 15.984375 -7.046875 C 17.140625 -7.046875 18.109375 -7.457031 18.890625 -8.28125 C 19.679688 -9.113281 20.078125 -10.15625 20.078125 -11.40625 L 20.078125 -26.84375 L 28.59375 -26.84375 L 28.59375 -10.265625 C 28.59375 -7.003906 27.503906 -4.390625 25.328125 -2.421875 C 23.160156 -0.453125 20.046875 0.53125 15.984375 0.53125 Z M 15.984375 0.53125 "/></g></g></g><g fill="#000000" fill-opacity="1"><g transform="translate(110.534166, 353.062477)"><g><path d="M 17.046875 0.53125 C 14.046875 0.53125 11.425781 -0.0703125 9.1875 -1.28125 C 6.957031 -2.488281 5.210938 -4.140625 3.953125 -6.234375 C 2.703125 -8.335938 2.078125 -10.734375 2.078125 -13.421875 C 2.078125 -16.109375 2.703125 -18.503906 3.953125 -20.609375 C 5.210938 -22.710938 6.957031 -24.367188 9.1875 -25.578125 C 11.425781 -26.785156 14.046875 -27.390625 17.046875 -27.390625 C 21.078125 -27.390625 24.390625 -26.328125 26.984375 -24.203125 C 29.578125 -22.078125 31.164062 -19.335938 31.75 -15.984375 L 22.890625 -15.984375 C 22.441406 -17.140625 21.703125 -18.050781 20.671875 -18.71875 C 19.640625 -19.394531 18.429688 -19.753906 17.046875 -19.796875 C 15.210938 -19.753906 13.691406 -19.140625 12.484375 -17.953125 C 11.273438 -16.765625 10.671875 -15.253906 10.671875 -13.421875 C 10.671875 -11.628906 11.273438 -10.128906 12.484375 -8.921875 C 13.691406 -7.710938 15.210938 -7.085938 17.046875 -7.046875 C 18.429688 -7.085938 19.640625 -7.457031 20.671875 -8.15625 C 21.703125 -8.851562 22.441406 -9.757812 22.890625 -10.875 L 31.75 -10.875 C 31.164062 -7.519531 29.578125 -4.78125 26.984375 -2.65625 C 24.390625 -0.53125 21.078125 0.53125 17.046875 0.53125 Z M 17.046875 0.53125 "/></g></g></g><g fill="#000000" fill-opacity="1"><g transform="translate(142.751182, 353.062477)"><g><path d="M 33.5 0 L 22.359375 0 L 12.890625 -12.359375 L 12.890625 0 L 4.359375 0 L 4.359375 -45.984375 L 12.890625 -45.984375 L 12.890625 -17.1875 L 22.21875 -26.84375 L 32.484375 -26.84375 L 20.75 -14.703125 Z M 33.5 0 "/></g></g></g><g fill="#000000" fill-opacity="1"><g transform="translate(173.961415, 353.062477)"><g><path d="M 23.15625 0.53125 C 20.289062 0.53125 17.613281 -0.00390625 15.125 -1.078125 C 12.644531 -2.148438 10.453125 -3.632812 8.546875 -5.53125 C 6.648438 -7.4375 5.164062 -9.628906 4.09375 -12.109375 C 3.019531 -14.597656 2.484375 -17.273438 2.484375 -20.140625 C 2.484375 -23.003906 3.019531 -25.675781 4.09375 -28.15625 C 5.164062 -30.644531 6.648438 -32.835938 8.546875 -34.734375 C 10.453125 -36.640625 12.644531 -38.128906 15.125 -39.203125 C 17.613281 -40.273438 20.289062 -40.8125 23.15625 -40.8125 C 27.144531 -40.8125 30.769531 -39.789062 34.03125 -37.75 C 37.300781 -35.71875 39.785156 -33.046875 41.484375 -29.734375 L 33.828125 -25.78125 C 32.847656 -27.695312 31.414062 -29.238281 29.53125 -30.40625 C 27.65625 -31.570312 25.53125 -32.15625 23.15625 -32.15625 C 20.914062 -32.15625 18.890625 -31.628906 17.078125 -30.578125 C 15.265625 -29.523438 13.832031 -28.09375 12.78125 -26.28125 C 11.726562 -24.46875 11.203125 -22.421875 11.203125 -20.140625 C 11.203125 -17.859375 11.726562 -15.8125 12.78125 -14 C 13.832031 -12.1875 15.265625 -10.753906 17.078125 -9.703125 C 18.890625 -8.648438 20.914062 -8.125 23.15625 -8.125 C 25.53125 -8.125 27.65625 -8.703125 29.53125 -9.859375 C 31.414062 -11.023438 32.847656 -12.570312 33.828125 -14.5 L 41.484375 -10.546875 C 39.785156 -7.273438 37.300781 -4.609375 34.03125 -2.546875 C 30.769531 -0.492188 27.144531 0.53125 23.15625 0.53125 Z M 23.15625 0.53125 "/></g></g></g><g fill="#000000" fill-opacity="1"><g transform="translate(216.112063, 353.062477)"><g><path d="M 33.90625 -6.984375 L 35.109375 -6.984375 L 35.109375 0 C 34.796875 0.132812 34.445312 0.253906 34.0625 0.359375 C 33.6875 0.472656 33.273438 0.53125 32.828125 0.53125 C 31.035156 0.53125 29.421875 0.117188 27.984375 -0.703125 C 26.554688 -1.535156 25.414062 -2.644531 24.5625 -4.03125 C 23.488281 -2.644531 22.179688 -1.535156 20.640625 -0.703125 C 19.097656 0.117188 17.34375 0.53125 15.375 0.53125 C 12.914062 0.53125 10.675781 -0.09375 8.65625 -1.34375 C 6.644531 -2.59375 5.046875 -4.269531 3.859375 -6.375 C 2.671875 -8.476562 2.078125 -10.828125 2.078125 -13.421875 C 2.078125 -16.015625 2.671875 -18.363281 3.859375 -20.46875 C 5.046875 -22.570312 6.644531 -24.25 8.65625 -25.5 C 10.675781 -26.757812 12.914062 -27.390625 15.375 -27.390625 C 16.9375 -27.390625 18.351562 -27.128906 19.625 -26.609375 C 20.90625 -26.097656 22.039062 -25.394531 23.03125 -24.5 L 23.03125 -26.84375 L 31.546875 -26.84375 L 31.546875 -9.59375 C 31.546875 -8.476562 31.789062 -7.765625 32.28125 -7.453125 C 32.78125 -7.140625 33.320312 -6.984375 33.90625 -6.984375 Z M 17.046875 -7.046875 C 18.796875 -7.046875 20.296875 -7.660156 21.546875 -8.890625 C 22.796875 -10.117188 23.421875 -11.628906 23.421875 -13.421875 C 23.421875 -15.210938 22.796875 -16.722656 21.546875 -17.953125 C 20.296875 -19.179688 18.796875 -19.796875 17.046875 -19.796875 C 15.253906 -19.796875 13.742188 -19.179688 12.515625 -17.953125 C 11.285156 -16.722656 10.671875 -15.210938 10.671875 -13.421875 C 10.671875 -11.628906 11.285156 -10.117188 12.515625 -8.890625 C 13.742188 -7.660156 15.253906 -7.046875 17.046875 -7.046875 Z M 17.046875 -7.046875 "/></g></g></g><g fill="#000000" fill-opacity="1"><g transform="translate(251.148079, 353.062477)"><g><path d="M 35.984375 -27.390625 C 38.929688 -27.390625 41.195312 -26.4375 42.78125 -24.53125 C 44.375 -22.632812 45.171875 -20.117188 45.171875 -16.984375 L 45.171875 0 L 36.65625 0 L 36.65625 -15.578125 C 36.65625 -16.734375 36.285156 -17.722656 35.546875 -18.546875 C 34.804688 -19.378906 33.851562 -19.796875 32.6875 -19.796875 C 31.394531 -19.796875 30.429688 -19.335938 29.796875 -18.421875 C 29.171875 -17.503906 28.859375 -16.554688 28.859375 -15.578125 L 28.859375 0 L 20.265625 0 L 20.265625 -15.578125 C 20.265625 -16.734375 19.90625 -17.722656 19.1875 -18.546875 C 18.476562 -19.378906 17.539062 -19.796875 16.375 -19.796875 C 15.082031 -19.796875 14.117188 -19.335938 13.484375 -18.421875 C 12.859375 -17.503906 12.546875 -16.554688 12.546875 -15.578125 L 12.546875 0 L 3.953125 0 L 3.953125 -26.84375 L 12.546875 -26.84375 L 12.546875 -23.5625 C 13.441406 -24.726562 14.503906 -25.65625 15.734375 -26.34375 C 16.972656 -27.039062 18.351562 -27.390625 19.875 -27.390625 C 21.570312 -27.390625 23.078125 -26.960938 24.390625 -26.109375 C 25.710938 -25.265625 26.753906 -24.125 27.515625 -22.6875 C 28.367188 -24.164062 29.507812 -25.316406 30.9375 -26.140625 C 32.375 -26.972656 34.054688 -27.390625 35.984375 -27.390625 Z M 35.984375 -27.390625 "/></g></g></g><g fill="#000000" fill-opacity="1"><g transform="translate(298.668247, 353.062477)"><g><path d="M 20.203125 -27.390625 C 22.660156 -27.390625 24.882812 -26.757812 26.875 -25.5 C 28.875 -24.25 30.46875 -22.570312 31.65625 -20.46875 C 32.84375 -18.363281 33.4375 -16.015625 33.4375 -13.421875 C 33.4375 -10.828125 32.84375 -8.476562 31.65625 -6.375 C 30.46875 -4.269531 28.875 -2.59375 26.875 -1.34375 C 24.882812 -0.09375 22.660156 0.53125 20.203125 0.53125 C 18.679688 0.53125 17.28125 0.273438 16 -0.234375 C 14.726562 -0.742188 13.578125 -1.445312 12.546875 -2.34375 L 12.546875 16.171875 L 3.953125 16.109375 L 3.953125 -26.84375 L 12.546875 -26.78125 L 12.546875 -24.5 C 13.578125 -25.394531 14.726562 -26.097656 16 -26.609375 C 17.28125 -27.128906 18.679688 -27.390625 20.203125 -27.390625 Z M 18.53125 -7.046875 C 20.320312 -7.046875 21.832031 -7.660156 23.0625 -8.890625 C 24.289062 -10.117188 24.90625 -11.628906 24.90625 -13.421875 C 24.90625 -15.210938 24.289062 -16.722656 23.0625 -17.953125 C 21.832031 -19.179688 20.320312 -19.796875 18.53125 -19.796875 C 16.738281 -19.796875 15.226562 -19.179688 14 -17.953125 C 12.769531 -16.722656 12.15625 -15.210938 12.15625 -13.421875 C 12.15625 -11.628906 12.769531 -10.117188 14 -8.890625 C 15.226562 -7.660156 16.738281 -7.046875 18.53125 -7.046875 Z M 18.53125 -7.046875 "/></g></g></g></svg>